<svg xmlns="http://www.w3.org/2000/svg" width="450" height="181.425" viewBox="0 0 450 181.425"><defs><style>.a,.f{fill:none;}.a{stroke:#840fd6;stroke-linecap:round;stroke-width:0.577px;}.a,.c{stroke-linejoin:round;}.b{fill:#050505;font-size:26px;font-family:RobotoSlab-Regular, Roboto Slab;}.c{fill:#fff;stroke:#000;stroke-width:3px;}.d{fill:#010101;fill-rule:evenodd;}.e{stroke:none;}</style></defs><g transform="translate(-174 -749)"><g transform="translate(338.382 752.354)"><line class="a" x1="18.372" y1="7.606" transform="translate(8.088 12.458)"/><line class="a" x1="19.711" y1="2.603" transform="translate(0.911 39.239)"/><line class="a" x1="19.711" y2="2.603" transform="translate(0.911 64.371)"/><line class="a" x1="18.372" y2="7.606" transform="translate(8.088 86.149)"/><line class="a" x1="15.779" y2="12.105" transform="translate(21.95 105.667)"/><line class="a" x1="12.116" y2="15.779" transform="translate(41.553 121.596)"/><line class="a" x1="7.434" y2="17.943" transform="translate(65.753 132.866)"/><line class="a" x1="2.539" y2="19.25" transform="translate(92.416 138.704)"/><line class="a" x2="2.539" y2="19.25" transform="translate(117.493 138.704)"/><line class="a" x2="7.434" y2="17.943" transform="translate(139.261 132.866)"/><line class="a" x2="11.826" y2="15.404" transform="translate(158.779 121.596)"/><line class="a" x2="15.404" y2="11.816" transform="translate(174.719 105.667)"/><line class="a" x2="17.943" y2="7.424" transform="translate(185.988 86.149)"/><line class="a" x2="19.711" y2="2.603" transform="translate(191.827 64.371)"/><line class="a" y1="2.603" x2="19.711" transform="translate(191.827 39.239)"/><line class="a" y1="7.606" x2="18.372" transform="translate(185.988 12.458)"/><path class="a" d="M480.886,388.694a7.537,7.537,0,1,0-7.538,7.536,7.536,7.536,0,0,0,7.538-7.536" transform="translate(-367.131 -335.598)"/><path class="a" d="M447,370.988a47.13,47.13,0,0,0,30.936,69.645" transform="translate(-381.599 -341.455)"/><path class="a" d="M476.865,440.633A47.128,47.128,0,0,0,507.8,370.988" transform="translate(-360.766 -341.455)"/><path class="a" d="M434.647,363.158l-.857,1.521-.814,1.532-.771,1.553-.739,1.575-.707,1.6-.664,1.607-.621,1.628-.579,1.639-.546,1.65-.5,1.66-.461,1.682-.418,1.682-.386,1.7-.343,1.7-.3,1.714-.257,1.714-.214,1.725-.171,1.735-.129,1.735-.1,1.735-.043,1.735v1.735l.032,1.746.075,1.735.129,1.735.161,1.725.2,1.735.246,1.714.289,1.714.332,1.714.364,1.693.418,1.693.45,1.682.493,1.66.536,1.66.568,1.639.621,1.628.643,1.618.7,1.6.728,1.575.771,1.564.8,1.532.836,1.521.878,1.51.921,1.478.943,1.457.986,1.425,1.028,1.414,1.05,1.382,1.082,1.361,1.125,1.328,1.146,1.307,1.189,1.275,1.21,1.243L447.223,451l1.275,1.178,1.3,1.157,1.328,1.125,1.35,1.093,1.382,1.061,1.4,1.018,1.435.986,1.457.964,1.468.91,1.5.889,1.521.846,1.543.8,1.553.771,1.575.739,1.6.7,1.607.654,1.628.621,1.639.578,1.66.536,1.66.5,1.682.45,1.682.418,1.7.375,1.7.343,1.714.289,1.725.257,1.725.2,1.725.171,1.735.129,1.746.075,1.735.043h1.735l1.735-.043,1.746-.075,1.735-.129,1.725-.171,1.725-.2L508.1,470l1.714-.289,1.7-.343,1.7-.375,1.682-.418,1.682-.45,1.66-.5,1.66-.536,1.639-.578,1.628-.621,1.607-.654,1.6-.7,1.575-.739,1.553-.771,1.543-.8,1.521-.846,1.5-.889,1.468-.91,1.457-.964,1.435-.986,1.4-1.018,1.382-1.061,1.35-1.093,1.328-1.125,1.3-1.157L546.463,451l1.243-1.221,1.211-1.243,1.189-1.275,1.146-1.307,1.125-1.328,1.082-1.361,1.05-1.382,1.028-1.414.985-1.425.943-1.457.921-1.478.878-1.51.836-1.521.8-1.532.771-1.564.729-1.575.7-1.6.643-1.618.621-1.628.568-1.639.536-1.66.493-1.66.45-1.682.418-1.693.364-1.693.332-1.714.289-1.714.246-1.714.2-1.735.161-1.725.129-1.735.075-1.735.032-1.746v-1.735l-.043-1.735-.1-1.735-.128-1.735-.171-1.735-.214-1.725-.257-1.714-.3-1.714-.343-1.7-.386-1.7L566.3,380.8l-.461-1.682-.5-1.66-.546-1.65-.578-1.639-.621-1.628-.664-1.607-.707-1.6-.739-1.575-.771-1.553-.814-1.532-.857-1.521" transform="translate(-390.619 -345.964)"/><path class="a" d="M431.913,361.424,431.023,363l-.846,1.6-.814,1.618-.771,1.639-.739,1.65-.7,1.671-.653,1.682-.621,1.7-.579,1.714L424.767,378l-.493,1.746-.45,1.746-.418,1.757-.375,1.778-.332,1.768-.289,1.789-.246,1.789-.2,1.8-.171,1.8-.118,1.81-.075,1.8-.043,1.81.011,1.81.043,1.81.1,1.8.129,1.81.171,1.8.214,1.789.257,1.8.311,1.778.332,1.778.386,1.768.428,1.757.461,1.746.514,1.735.546,1.725.578,1.714.632,1.693.664,1.682.707,1.66.739,1.65.793,1.639.814,1.607.857,1.6.9,1.564.932,1.553.964,1.532,1.007,1.5,1.039,1.478,1.071,1.457,1.1,1.435,1.135,1.4,1.178,1.382,1.2,1.35,1.243,1.318,1.264,1.3,1.3,1.253,1.318,1.232,1.36,1.2,1.382,1.168,1.4,1.136,1.435,1.1,1.457,1.071L455.416,464l1.5,1.007,1.532.964,1.553.921,1.575.889,1.6.857,1.618.814,1.628.782,1.65.739,1.671.7,1.682.664,1.7.621,1.7.579,1.725.546,1.746.5,1.746.461,1.757.418,1.768.375,1.778.332,1.789.3,1.789.257,1.8.2,1.8.171,1.8.129,1.81.086,1.81.043h1.8l1.81-.043,1.81-.086,1.8-.129,1.8-.171,1.8-.2,1.789-.257,1.789-.3,1.778-.332,1.768-.375,1.757-.418,1.746-.461,1.746-.5,1.725-.546,1.7-.579,1.7-.621,1.682-.664,1.671-.7,1.65-.739,1.628-.782,1.618-.814,1.6-.857,1.575-.889,1.553-.921,1.532-.964,1.5-1.007,1.489-1.028,1.457-1.071,1.435-1.1,1.4-1.136,1.382-1.168,1.36-1.2,1.318-1.232,1.3-1.253,1.264-1.3,1.243-1.318,1.2-1.35,1.178-1.382,1.135-1.4,1.1-1.435,1.071-1.457,1.039-1.478,1.007-1.5.964-1.532.932-1.553.9-1.564.857-1.6.814-1.607.793-1.639.739-1.65.707-1.66.664-1.682.632-1.693.578-1.714.546-1.725.514-1.735.461-1.746.429-1.757.386-1.768.332-1.778.311-1.778.257-1.8.214-1.789.171-1.8.129-1.81.1-1.8.043-1.81.011-1.81-.043-1.81-.075-1.8-.118-1.81-.171-1.8-.2-1.8-.246-1.789-.289-1.789-.332-1.768-.375-1.778-.418-1.757-.45-1.746L572.92,378l-.536-1.725-.578-1.714-.621-1.7-.654-1.682-.7-1.671-.739-1.65-.771-1.639-.814-1.618-.846-1.6-.889-1.575" transform="translate(-392.62 -346.963)"/><path class="a" d="M425.11,357.121l-.953,1.693-.921,1.725-.889,1.735-.846,1.768-.8,1.768-.771,1.8-.728,1.81-.7,1.821-.653,1.842-.611,1.853-.568,1.864-.536,1.875-.493,1.9-.45,1.9-.418,1.907-.364,1.918-.332,1.918-.289,1.939-.246,1.928-.2,1.95-.161,1.939-.118,1.95-.075,1.95-.043,1.95.011,1.95.043,1.95.086,1.95.139,1.95.171,1.95.214,1.939.257,1.928.289,1.939.343,1.918.386,1.917.418,1.907.461,1.9.5,1.885.546,1.875.578,1.853.621,1.853.664,1.843.707,1.821.739,1.8.782,1.789.814,1.778.857,1.746.889,1.735.932,1.714.964,1.7,1.007,1.671,1.039,1.65,1.071,1.628,1.114,1.607,1.136,1.585L431.9,458.1l1.21,1.532,1.243,1.51,1.275,1.478,1.307,1.446,1.339,1.425,1.36,1.393,1.4,1.361,1.425,1.339,1.457,1.3,1.478,1.275,1.51,1.232,1.532,1.211,1.564,1.168,1.585,1.146,1.607,1.1,1.628,1.071,1.66,1.029,1.671,1,1.7.964,1.714.932,1.735.889,1.757.846,1.778.814,1.789.771,1.81.739,1.821.7,1.843.653,1.853.621,1.864.578,1.875.536,1.885.5,1.9.45,1.907.418,1.918.375,1.918.332,1.939.3,1.928.246,1.939.214,1.95.161,1.95.129,1.95.086,1.95.043h1.95l1.95-.043,1.95-.086,1.95-.129,1.95-.161,1.939-.214,1.928-.246,1.939-.3,1.917-.332,1.917-.375,1.907-.418,1.9-.45,1.885-.5,1.875-.536,1.864-.578,1.853-.621,1.843-.653,1.821-.7,1.81-.739,1.789-.771,1.778-.814,1.757-.846,1.735-.889,1.714-.932,1.7-.964,1.671-1,1.66-1.029,1.628-1.071,1.607-1.1,1.585-1.146,1.564-1.168,1.532-1.211,1.51-1.232,1.478-1.275,1.457-1.3,1.425-1.339,1.4-1.361,1.361-1.393,1.339-1.425,1.307-1.446,1.275-1.478,1.243-1.51,1.211-1.532,1.178-1.553,1.135-1.585,1.114-1.607,1.071-1.628,1.039-1.65,1.007-1.671.964-1.7.932-1.714.889-1.735.857-1.746.814-1.778.782-1.789.739-1.8.707-1.821.664-1.843.621-1.853.578-1.853.546-1.875.5-1.885.461-1.9.418-1.907.386-1.917.343-1.918.289-1.939L594,413.5l.214-1.939.171-1.95.139-1.95.086-1.95.043-1.95.011-1.95-.043-1.95-.075-1.95-.118-1.95-.161-1.939-.2-1.95-.246-1.928-.289-1.939-.332-1.918-.364-1.918-.418-1.907-.45-1.9-.493-1.9-.536-1.875-.568-1.864-.611-1.853-.653-1.842-.7-1.821-.728-1.81-.771-1.8-.8-1.768-.846-1.768-.889-1.735-.921-1.725-.954-1.693" transform="translate(-397.58 -349.441)"/><path class="a" d="M422.852,355.68l-1,1.768-.964,1.789-.921,1.81-.878,1.832-.836,1.843-.8,1.864-.761,1.875-.728,1.9-.675,1.907-.643,1.928-.6,1.939-.557,1.95-.525,1.96-.471,1.971-.439,1.982-.386,1.993-.353,1.992-.3,2L410.747,392l-.214,2.014-.182,2.025-.139,2.025-.086,2.025-.054,2.025v2.025l.032,2.035.086,2.025.129,2.025.161,2.025.214,2.014.246,2.014.3,2,.332,2,.386,1.993.418,1.982.471,1.971.5,1.96.546,1.96.589,1.939.632,1.928.675,1.907.707,1.907.761,1.885.793,1.864.825,1.842.878,1.832.9,1.821.953,1.789.986,1.768,1.028,1.757,1.06,1.725,1.093,1.714,1.135,1.682,1.168,1.65,1.2,1.639,1.243,1.607,1.264,1.575,1.307,1.553,1.339,1.521,1.371,1.5,1.4,1.468,1.425,1.435,1.468,1.4,1.489,1.371,1.521,1.35,1.553,1.307,1.575,1.275,1.607,1.243,1.628,1.21,1.65,1.168,1.682,1.135,1.7,1.1,1.725,1.061,1.746,1.028,1.778,1,1.789.953,1.81.911,1.821.878,1.853.836,1.864.793,1.885.76,1.9.718,1.907.675,1.928.643,1.939.589,1.95.557,1.96.514,1.971.471,1.993.418,1.982.386,2,.354,2,.3,2.014.257,2.014.214,2.025.171,2.025.129,2.025.086,2.025.043h2.035l2.025-.043,2.025-.086,2.025-.129,2.025-.171,2.014-.214,2.014-.257,2-.3,2-.354,1.982-.386,1.992-.418,1.971-.471,1.96-.514,1.95-.557,1.939-.589,1.928-.643,1.907-.675,1.9-.718,1.885-.76,1.864-.793,1.853-.836,1.821-.878,1.81-.911,1.789-.953,1.778-1,1.746-1.028,1.725-1.061,1.7-1.1,1.682-1.135,1.65-1.168,1.628-1.21,1.607-1.243,1.575-1.275,1.553-1.307,1.521-1.35,1.489-1.371,1.468-1.4,1.425-1.435,1.4-1.468,1.371-1.5,1.339-1.521,1.307-1.553,1.264-1.575,1.243-1.607,1.2-1.639L584,457.5l1.136-1.682,1.093-1.714,1.061-1.725,1.028-1.757.986-1.768.953-1.789.9-1.821.879-1.832.825-1.842.793-1.864.761-1.885.707-1.907.675-1.907.632-1.928.589-1.939.546-1.96.5-1.96.471-1.971.418-1.982.386-1.993.332-2,.3-2,.247-2.014.214-2.014.161-2.025.128-2.025.086-2.025.032-2.035v-2.025l-.054-2.025-.086-2.025-.139-2.025-.182-2.025L600.164,392l-.268-2.014-.3-2-.353-1.992-.386-1.993-.439-1.982-.471-1.971-.525-1.96-.557-1.95-.6-1.939-.643-1.928-.675-1.907-.728-1.9-.76-1.875-.8-1.864-.836-1.843-.878-1.832-.921-1.81-.964-1.789-1-1.768" transform="translate(-399.231 -350.271)"/><path class="a" d="M419.258,353.41l-1.028,1.821-.986,1.853-.953,1.864-.921,1.885-.878,1.907-.836,1.918-.793,1.939-.761,1.95-.718,1.971-.675,1.982-.643,1.992-.6,2.014-.546,2.014-.514,2.035-.471,2.035-.439,2.057-.386,2.057-.343,2.068-.311,2.078-.257,2.078-.214,2.078-.182,2.089-.129,2.089-.1,2.1-.043,2.089-.011,2.1.043,2.089.075,2.1.129,2.089.161,2.089.214,2.089.246,2.078.289,2.078.343,2.068.375,2.057.418,2.057.461,2.035.5,2.035.546,2.025.589,2.014.621,2,.675,1.982.707,1.971.75,1.96.782,1.939.836,1.928.868,1.907.9,1.885.943,1.875.986,1.853L419,455.5l1.061,1.81,1.093,1.789,1.125,1.768,1.168,1.735,1.2,1.725,1.243,1.693,1.264,1.66,1.307,1.639,1.339,1.618,1.371,1.586,1.4,1.553L434,475.606l1.468,1.5,1.5,1.468,1.521,1.435,1.553,1.4,1.585,1.382,1.607,1.339,1.639,1.307,1.66,1.275,1.693,1.243,1.714,1.2,1.735,1.168,1.757,1.136,1.789,1.1,1.81,1.061,1.821,1.028,1.853.986,1.864.943,1.885.911,1.907.878,1.928.825,1.939.793,1.95.761,1.971.707,1.982.675,2,.632,2.014.589,2.014.557,2.035.5,2.046.471,2.046.418,2.068.386,2.068.343,2.067.3,2.078.257,2.089.214,2.089.171,2.089.129,2.1.086,2.089.043h2.1l2.089-.043,2.1-.086,2.089-.129,2.089-.171,2.089-.214,2.078-.257,2.068-.3,2.068-.343,2.068-.386,2.046-.418,2.046-.471,2.035-.5,2.014-.557,2.014-.589,2-.632,1.982-.675,1.971-.707,1.95-.761,1.939-.793,1.928-.825,1.907-.878,1.885-.911,1.864-.943,1.853-.986,1.821-1.028,1.81-1.061,1.789-1.1,1.757-1.136,1.735-1.168,1.714-1.2,1.693-1.243,1.66-1.275,1.639-1.307,1.607-1.339,1.585-1.382,1.553-1.4,1.521-1.435,1.5-1.468,1.468-1.5,1.425-1.532,1.4-1.553,1.371-1.586,1.339-1.618L589,467.679l1.264-1.66,1.243-1.693,1.2-1.725,1.168-1.735,1.125-1.768,1.093-1.789,1.06-1.81,1.018-1.821.986-1.853.943-1.875.9-1.885.868-1.907.836-1.928.782-1.939.75-1.96.707-1.971.675-1.982.621-2,.589-2.014.546-2.025.5-2.035.461-2.035.418-2.057.375-2.057.343-2.068.289-2.078.246-2.078.214-2.089.161-2.089.129-2.089.075-2.1.043-2.089-.011-2.1-.043-2.089-.1-2.1-.129-2.089-.182-2.089-.214-2.078-.257-2.078-.311-2.078-.343-2.068-.386-2.057-.439-2.057-.471-2.035-.514-2.035-.546-2.014-.6-2.014-.643-1.992-.675-1.982-.718-1.971-.761-1.95-.793-1.939-.836-1.918-.878-1.907-.921-1.885-.953-1.864-.985-1.853-1.028-1.821" transform="translate(-401.85 -351.578)"/><path class="a" d="M417.419,352.247l-1.05,1.853-1.007,1.885-.975,1.907-.943,1.928-.9,1.939-.857,1.96-.814,1.971-.782,1.992-.739,2.014-.7,2.014L408,373.747l-.621,2.057-.568,2.057-.536,2.068-.493,2.089-.45,2.089-.407,2.1-.364,2.11-.321,2.11-.278,2.121-.236,2.132-.193,2.132-.15,2.132-.107,2.132-.064,2.142-.021,2.132.021,2.142.064,2.142.107,2.132.15,2.132.193,2.132.236,2.132.278,2.121.321,2.11.364,2.11.407,2.1.45,2.089.493,2.078.536,2.078.568,2.057L408,436.95l.653,2.046.7,2.014.739,2.014.782,1.992.814,1.971.857,1.96.9,1.939.943,1.928.975,1.907,1.007,1.875,1.05,1.864,1.093,1.843,1.125,1.821,1.157,1.8,1.2,1.768,1.232,1.757,1.275,1.714,1.3,1.7,1.339,1.671,1.371,1.639,1.4,1.618,1.425,1.585,1.468,1.553,1.5,1.532,1.532,1.5,1.553,1.468,1.585,1.435,1.618,1.4,1.639,1.361,1.671,1.339,1.7,1.307,1.725,1.264,1.746,1.232,1.768,1.2,1.8,1.157,1.821,1.125,1.842,1.093,1.864,1.05,1.885,1.018,1.9.975,1.928.932,1.939.9,1.96.857,1.982.814,1.993.782,2,.739,2.025.7,2.035.653,2.046.621,2.057.568,2.078.536,2.078.493,2.089.45,2.11.407,2.1.364,2.121.321,2.121.279,2.121.236,2.132.193,2.132.15,2.142.107,2.132.064,2.142.021,2.142-.021,2.132-.064,2.142-.107,2.132-.15,2.132-.193,2.121-.236,2.121-.279,2.121-.321,2.1-.364,2.11-.407,2.089-.45,2.078-.493,2.078-.536,2.057-.568,2.046-.621,2.035-.653,2.025-.7,2-.739,1.992-.782,1.982-.814,1.96-.857,1.939-.9,1.928-.932,1.9-.975,1.885-1.018,1.864-1.05,1.843-1.093,1.821-1.125,1.8-1.157,1.768-1.2,1.746-1.232,1.725-1.264,1.7-1.307,1.66-1.339,1.65-1.361,1.618-1.4,1.585-1.435L583,481.964l1.532-1.5,1.5-1.532,1.468-1.553,1.425-1.585,1.4-1.618,1.371-1.639,1.339-1.671,1.3-1.7,1.275-1.714,1.232-1.757,1.2-1.768,1.157-1.8,1.125-1.821,1.093-1.843,1.05-1.864,1.007-1.875.975-1.907.943-1.928.9-1.939.857-1.96.814-1.971.782-1.992.739-2.014.7-2.014.654-2.046.621-2.046.568-2.057.536-2.078.493-2.078.45-2.089.407-2.1.364-2.11.321-2.11.279-2.121.236-2.132.193-2.132.15-2.132.107-2.132.064-2.142.021-2.142-.021-2.132-.064-2.142-.107-2.132-.15-2.132-.193-2.132-.236-2.132-.279-2.121-.321-2.11-.364-2.11-.407-2.1-.45-2.089-.493-2.089-.536-2.068-.568-2.057-.621-2.057-.654-2.035-.7-2.014-.739-2.014-.782-1.992-.814-1.971-.857-1.96-.9-1.939-.943-1.928-.975-1.907-1.007-1.885-1.05-1.853" transform="translate(-403.193 -352.247)"/><path class="a" d="M421.053,354.545l-1.007,1.778-.964,1.8-.921,1.821-.9,1.842-.846,1.853-.814,1.875-.782,1.885-.728,1.907-.7,1.917-.664,1.928-.611,1.95-.578,1.96-.536,1.971-.493,1.982-.461,1.993L409.645,385l-.375,2.014-.332,2.014-.289,2.025-.246,2.025-.2,2.035-.161,2.035-.129,2.035-.075,2.035-.032,2.046v2.046l.043,2.035.1,2.046.129,2.035.171,2.035.214,2.025.257,2.025.3,2.025.343,2.014.386,2,.418,2,.471,1.982.5,1.982.546,1.971.589,1.95.621,1.95.675,1.928.707,1.917.739,1.9.782,1.885.825,1.875.868,1.843.9,1.832.932,1.821.975,1.789,1.018,1.778,1.05,1.746,1.082,1.735,1.125,1.7,1.146,1.693,1.189,1.66,1.232,1.628,1.253,1.617,1.285,1.575L432,468.878l1.35,1.521,1.382,1.5,1.425,1.478,1.435,1.435,1.478,1.414,1.51,1.382,1.532,1.35,1.553,1.318,1.585,1.285,1.618,1.253,1.639,1.221,1.66,1.178,1.693,1.157,1.7,1.114,1.735,1.082,1.757,1.039,1.778,1.007,1.8.975,1.81.932,1.832.9,1.853.857,1.875.814,1.885.782,1.907.739,1.917.707,1.928.653,1.95.621,1.96.589,1.96.536,1.982.5,1.993.461,2,.418,2,.375,2.014.332,2.025.3,2.025.246,2.025.214,2.035.171,2.046.129,2.035.075,2.046.043h2.035l2.046-.043,2.035-.075,2.046-.129,2.035-.171,2.025-.214,2.025-.246,2.025-.3,2.014-.332,2-.375,2-.418,1.993-.461,1.982-.5,1.96-.536,1.96-.589,1.95-.621,1.928-.653,1.917-.707,1.907-.739,1.885-.782,1.875-.814,1.853-.857,1.832-.9,1.81-.932,1.8-.975,1.778-1.007,1.757-1.039,1.735-1.082,1.7-1.114,1.693-1.157,1.66-1.178,1.639-1.221,1.618-1.253,1.585-1.285,1.553-1.318,1.532-1.35,1.511-1.382,1.478-1.414,1.435-1.435,1.425-1.478,1.382-1.5,1.35-1.521,1.328-1.564,1.285-1.575,1.253-1.617,1.232-1.628,1.189-1.66,1.146-1.693,1.125-1.7,1.082-1.735,1.05-1.746,1.018-1.778.975-1.789.932-1.821.9-1.832.868-1.843.825-1.875.782-1.885.739-1.9.707-1.917.675-1.928.621-1.95.589-1.95.546-1.971.5-1.982.471-1.982.418-2,.386-2,.343-2.014.3-2.025.257-2.025.214-2.025.171-2.035.129-2.035.1-2.046.043-2.035v-2.046l-.032-2.046-.075-2.035-.129-2.035-.161-2.035-.2-2.035-.246-2.025-.289-2.025-.332-2.014L603.882,385l-.407-1.992-.461-1.993-.493-1.982-.536-1.971-.578-1.96-.611-1.95-.664-1.928-.7-1.917-.728-1.907-.782-1.885-.814-1.875-.846-1.853-.9-1.842-.921-1.821-.964-1.8-1.007-1.778" transform="translate(-400.539 -350.924)"/><path class="a" d="M427.375,358.556l-.943,1.66-.9,1.693-.857,1.7-.825,1.736-.793,1.735-.75,1.768-.707,1.778-.664,1.789-.632,1.81-.589,1.821-.546,1.832-.514,1.843-.461,1.853-.428,1.864-.386,1.875-.343,1.885-.3,1.885-.257,1.9-.214,1.907-.182,1.907-.129,1.907-.086,1.907-.054,1.918v1.907l.032,1.918.075,1.907.129,1.918.161,1.907.2,1.9.257,1.9.289,1.9.332,1.885.375,1.875.407,1.864.461,1.864.5,1.843.536,1.843.578,1.821.621,1.81.653,1.8.707,1.778.728,1.767.782,1.746.814,1.725.857,1.714.889,1.693.932,1.671.964,1.66,1.007,1.628,1.028,1.607,1.082,1.585,1.1,1.553,1.146,1.543,1.178,1.5,1.211,1.489,1.243,1.457,1.264,1.425,1.307,1.4,1.339,1.361,1.371,1.35,1.393,1.307,1.425,1.275,1.446,1.243,1.478,1.221,1.51,1.178,1.532,1.146,1.553,1.114,1.585,1.071,1.607,1.05,1.628,1.007,1.639.964,1.671.932,1.693.9,1.714.857,1.725.825,1.746.782,1.768.739,1.778.707,1.789.664,1.81.621,1.821.589,1.842.546,1.842.5,1.853.461,1.875.418,1.875.375,1.875.343,1.9.289,1.9.257,1.907.214,1.9.171,1.918.129,1.907.075,1.918.043H503.1l1.918-.043,1.907-.075,1.918-.129,1.9-.171,1.907-.214,1.9-.257,1.9-.289,1.875-.343,1.875-.375,1.875-.418,1.853-.461,1.843-.5,1.843-.546,1.821-.589,1.81-.621,1.789-.664,1.778-.707,1.768-.739,1.746-.782,1.725-.825,1.714-.857,1.693-.9,1.671-.932,1.639-.964,1.628-1.007,1.607-1.05,1.585-1.071,1.553-1.114,1.532-1.146,1.51-1.178,1.478-1.221,1.446-1.243,1.425-1.275,1.393-1.307,1.371-1.35,1.339-1.361,1.307-1.4,1.264-1.425,1.243-1.457,1.21-1.489,1.178-1.5,1.146-1.543,1.1-1.553,1.082-1.585,1.029-1.607,1.007-1.628.964-1.66.932-1.671.889-1.693.857-1.714.814-1.725.782-1.746.728-1.767.707-1.778.654-1.8.621-1.81.579-1.821.536-1.843.5-1.843.461-1.864.407-1.864.375-1.875.332-1.885.289-1.9.257-1.9.2-1.9.161-1.907.128-1.918.075-1.907.032-1.918v-1.907l-.054-1.918-.086-1.907-.129-1.907-.182-1.907-.214-1.907-.257-1.9-.3-1.885-.343-1.885-.386-1.875-.429-1.864-.461-1.853-.514-1.843-.546-1.832-.589-1.821-.632-1.81-.664-1.789-.707-1.778-.75-1.768-.793-1.735-.825-1.736-.857-1.7-.9-1.693-.943-1.66" transform="translate(-395.924 -348.615)"/><path class="a" d="M421.47,372.511l-.461,1.8-.418,1.821-.386,1.821-.332,1.832-.3,1.842-.257,1.842-.2,1.843-.171,1.864-.129,1.853-.086,1.864-.043,1.864v1.853l.043,1.864.086,1.864.129,1.853.171,1.853.2,1.853.257,1.843.3,1.842.332,1.832.386,1.821.418,1.821.461,1.8" transform="translate(-394.272 -340.578)"/><path class="a" d="M425.639,411.9l.943,1.607.986,1.575,1.028,1.553,1.05,1.543,1.093,1.511,1.125,1.478,1.168,1.457,1.189,1.435,1.221,1.4,1.253,1.371,1.286,1.35L439.3,429.5l1.35,1.285,1.371,1.253,1.414,1.221,1.425,1.2,1.457,1.157,1.489,1.125,1.51,1.093,1.532,1.05,1.553,1.028,1.585.986,1.6.943" transform="translate(-390.267 -317.892)"/><path class="a" d="M496.559,441.845l1.6-.943,1.585-.986,1.553-1.028,1.532-1.05,1.511-1.093,1.489-1.125,1.457-1.157,1.425-1.2,1.414-1.221,1.371-1.253,1.35-1.285,1.318-1.318,1.285-1.35,1.253-1.371,1.221-1.4,1.189-1.435,1.168-1.457,1.125-1.478,1.093-1.511,1.05-1.543,1.029-1.553.985-1.575.943-1.607" transform="translate(-349.424 -317.892)"/><path class="a" d="M520.745,414.857l.461-1.8.418-1.821.386-1.821.332-1.832.3-1.842.257-1.843.2-1.853.171-1.853.129-1.853.086-1.864.043-1.864v-1.853l-.043-1.864-.086-1.864-.129-1.853-.171-1.864-.2-1.843-.257-1.842-.3-1.842-.332-1.832-.386-1.821-.418-1.821-.461-1.8" transform="translate(-335.496 -340.578)"/><path class="a" d="M437.385,364.891l-.836,1.478-.782,1.489-.75,1.51-.707,1.532-.675,1.553L433,374.018l-.589,1.575-.557,1.6-.5,1.618-.471,1.618-.428,1.628-.386,1.65-.343,1.65-.311,1.66-.257,1.671-.214,1.671-.182,1.671-.129,1.682-.086,1.693-.054,1.682v1.693l.043,1.682.075,1.693.129,1.682.171,1.682.2,1.671.257,1.671.289,1.66.343,1.65.375,1.65.428,1.628.461,1.628.5,1.607.546,1.6.578,1.585.632,1.564.664,1.553.7,1.532.75,1.521.782,1.5.814,1.468.857,1.457.889,1.435.932,1.4.964,1.393,1.007,1.361,1.028,1.328,1.071,1.307,1.093,1.286,1.136,1.243,1.168,1.232,1.189,1.189,1.232,1.157,1.253,1.135,1.275,1.093,1.307,1.071,1.339,1.028,1.361,1,1.393.964,1.414.921,1.425.889,1.457.857,1.478.814,1.5.782,1.521.739,1.532.7,1.553.664,1.564.621,1.585.578,1.607.546,1.607.5,1.628.461,1.628.418,1.65.375,1.65.332" transform="translate(-388.623 -344.966)"/><path class="a" d="M478.416,463.274l1.65-.332,1.65-.375,1.628-.418,1.628-.461,1.607-.5,1.607-.546,1.585-.578,1.564-.621,1.553-.664,1.532-.7,1.521-.739,1.5-.782,1.478-.814,1.457-.857L501.8,454l1.414-.921,1.393-.964,1.36-1,1.339-1.028,1.307-1.071,1.275-1.093,1.253-1.135,1.232-1.157,1.189-1.189,1.168-1.232,1.136-1.243,1.093-1.286,1.071-1.307,1.029-1.328,1.007-1.361.964-1.393.932-1.4.889-1.435.857-1.457.814-1.468.782-1.5.75-1.521.7-1.532.664-1.553.632-1.564.578-1.585.546-1.6.5-1.607.461-1.628.428-1.628.375-1.65.343-1.65.289-1.66.257-1.671.2-1.671.171-1.682.129-1.682.075-1.693.043-1.682v-1.693L532.4,395.4l-.086-1.693-.128-1.682L532,390.354l-.214-1.671-.257-1.671-.311-1.66-.343-1.65-.386-1.65-.429-1.628-.471-1.618-.5-1.618-.557-1.6-.589-1.575-.632-1.564-.675-1.553-.707-1.532-.75-1.51-.782-1.489-.836-1.478" transform="translate(-359.873 -344.966)"/><path class="a" d="M440.113,366.631l-.782,1.4-.75,1.425-.707,1.446-.675,1.457-.632,1.489-.6,1.489-.557,1.51-.514,1.532-.471,1.543L434,381.468l-.4,1.564-.354,1.575-.311,1.585-.257,1.585-.225,1.6-.182,1.6-.15,1.607-.1,1.607-.053,1.607-.011,1.618.032,1.607.075,1.607.107,1.607.161,1.607.2,1.6.236,1.6.289,1.585.321,1.575.375,1.564.407,1.564.45,1.543.493,1.532.525,1.521.579,1.51.611,1.489.653,1.478.686,1.457.728,1.435.761,1.414.8,1.393.836,1.382.878,1.35.911,1.328.943,1.307.986,1.275,1.007,1.253,1.05,1.221,1.082,1.2,1.1,1.168,1.136,1.135,1.178,1.114,1.189,1.071,1.232,1.05,1.253,1.007,1.275.986,1.307.943,1.328.911,1.361.868,1.371.836,1.4.8,1.414.761,1.435.728,1.457.686,1.478.653,1.489.611,1.51.568,1.521.525,1.532.493,1.543.45,1.564.407" transform="translate(-386.626 -343.964)"/><path class="a" d="M479.878,456.176l1.564-.407,1.543-.45,1.532-.493,1.521-.525,1.51-.568,1.489-.611,1.478-.653,1.457-.686,1.435-.728,1.414-.761,1.4-.8,1.371-.836,1.36-.868,1.328-.911,1.307-.943,1.275-.986,1.253-1.007,1.232-1.05,1.189-1.071,1.178-1.114,1.136-1.135,1.1-1.168,1.082-1.2,1.05-1.221,1.007-1.253.986-1.275.943-1.307.911-1.328.878-1.35.836-1.382.8-1.393.761-1.414.728-1.435.686-1.457.654-1.478.611-1.489.579-1.51.525-1.521.493-1.532.45-1.543.407-1.564.375-1.564.321-1.575.289-1.585.236-1.6.2-1.6.161-1.607.107-1.607.075-1.607.032-1.607-.011-1.618-.054-1.607-.1-1.607-.15-1.607-.182-1.6-.225-1.6-.257-1.585-.311-1.585-.354-1.575-.4-1.564-.428-1.543-.471-1.543-.514-1.532-.557-1.51-.6-1.489-.632-1.489-.675-1.457-.707-1.446-.75-1.425-.782-1.4" transform="translate(-359.031 -343.964)"/><line class="a" y1="44.296" transform="translate(106.224 8.806)"/><line class="a" x1="51.184" y1="29.545" transform="translate(14.226)"/><line class="a" x1="57.076" y1="15.297" transform="translate(3.621 25.613)"/><line class="a" x1="106.224" transform="translate(0 53.101)"/><line class="a" x1="57.076" y2="15.297" transform="translate(3.621 65.303)"/><line class="a" x1="51.184" y2="29.545" transform="translate(14.226 76.669)"/><line class="a" x1="41.789" y2="41.789" transform="translate(31.109 86.428)"/><line class="a" x1="29.545" y2="51.184" transform="translate(53.112 93.915)"/><line class="a" x1="15.297" y2="57.076" transform="translate(78.725 98.629)"/><line class="a" y2="42.293" transform="translate(106.224 53.101)"/><line class="a" y2="52.855" transform="translate(106.224 124.928)"/><line class="a" x2="15.297" y2="57.076" transform="translate(118.425 98.629)"/><line class="a" x2="29.545" y2="51.184" transform="translate(129.791 93.915)"/><line class="a" x2="41.789" y2="41.789" transform="translate(139.55 86.428)"/><line class="a" x2="51.184" y2="29.545" transform="translate(147.038 76.669)"/><line class="a" x2="57.076" y2="15.297" transform="translate(151.752 65.303)"/><line class="a" x2="106.224" transform="translate(106.224 53.101)"/><line class="a" y1="15.297" x2="57.076" transform="translate(151.752 25.613)"/><line class="a" y1="29.545" x2="51.184" transform="translate(147.038)"/><line class="a" x1="7.617" y2="18.382" transform="translate(65.571 132.866)"/><line class="a" x1="2.592" y2="19.722" transform="translate(92.362 138.704)"/><line class="a" x2="2.592" y2="19.722" transform="translate(117.493 138.704)"/><line class="a" x2="7.617" y2="18.382" transform="translate(139.261 132.866)"/><line class="a" x2="12.116" y2="15.779" transform="translate(158.779 121.596)"/><line class="a" x2="15.779" y2="12.105" transform="translate(174.719 105.667)"/><line class="a" x2="18.372" y2="7.606" transform="translate(185.988 86.149)"/><path class="a" d="M490.759,427.54a14.767,14.767,0,1,0-14.768,14.768,14.766,14.766,0,0,0,14.768-14.768" transform="translate(-369.773 -317.391)"/><path class="a" d="M473.805,423a2.351,2.351,0,1,0-2.351,2.351A2.351,2.351,0,0,0,473.805,423" transform="translate(-365.236 -312.854)"/><path class="a" d="M442.851,368.365l-.739,1.318-.7,1.35-.675,1.36-.621,1.371-.589,1.4-.557,1.4-.514,1.435-.471,1.435-.439,1.457-.4,1.457-.354,1.478-.311,1.478-.279,1.489-.236,1.5-.193,1.51-.15,1.5-.107,1.51-.064,1.521-.032,1.511.022,1.521.054,1.51.1,1.51.139,1.51.182,1.51.225,1.5.257,1.489.3,1.489.343,1.478.386,1.468.429,1.446.461,1.446.5,1.435.546,1.414.579,1.4.611,1.382.664,1.36.686,1.35.728,1.328.771,1.307.8,1.3.836,1.264.868,1.232.9,1.221.943,1.189.964,1.168,1.007,1.135,1.028,1.114,1.061,1.082,1.093,1.05,1.114,1.028,1.146.986,1.178.964,1.2.932,1.221.889,1.253.857,1.264.836,1.3.782,1.318.761,1.328.718,1.36.686,1.371.643,1.382.611,1.414.568,1.414.525,1.435.493,1.446.45,1.457.418" transform="translate(-384.629 -342.966)"/><path class="a" d="M479.7,449.607l1.457-.418,1.446-.45,1.435-.493,1.414-.525,1.414-.568,1.382-.611,1.371-.643,1.361-.686,1.328-.718,1.318-.761,1.3-.782,1.264-.836,1.253-.857,1.221-.889,1.2-.932,1.178-.964,1.146-.986,1.114-1.028,1.093-1.05,1.06-1.082,1.028-1.114,1.007-1.135.964-1.168.943-1.189.9-1.221.868-1.232.836-1.264.8-1.3.771-1.307.728-1.328.686-1.35.664-1.36.611-1.382.578-1.4.546-1.414.5-1.435.461-1.446.428-1.446.386-1.468.343-1.478.3-1.489.257-1.489.225-1.5.182-1.51.139-1.51.1-1.51.054-1.51.021-1.521-.032-1.511-.064-1.521-.107-1.51-.15-1.5-.193-1.51L520,386.8l-.279-1.489-.311-1.478-.354-1.478-.4-1.457-.439-1.457-.471-1.435-.514-1.435-.557-1.4-.589-1.4-.621-1.371-.675-1.36-.7-1.35-.739-1.318" transform="translate(-359.133 -342.966)"/><path class="a" d="M434.647,363.158l-.857,1.521-.814,1.532-.771,1.553-.739,1.575-.707,1.6-.664,1.607-.621,1.628-.579,1.639-.546,1.65-.5,1.66-.461,1.682-.418,1.682-.386,1.7-.343,1.7-.3,1.714-.257,1.714-.214,1.725-.171,1.735-.129,1.735-.1,1.735-.043,1.735v1.735l.032,1.746.075,1.735.129,1.735.161,1.725.2,1.735.246,1.714.289,1.714.332,1.714.364,1.693.418,1.693.45,1.682.493,1.66.536,1.66.568,1.639.621,1.628.643,1.618.7,1.6.728,1.575.771,1.564.8,1.532.836,1.521.878,1.51.921,1.478.943,1.457.986,1.425,1.028,1.414,1.05,1.382,1.082,1.361,1.125,1.328,1.146,1.307,1.189,1.275,1.21,1.243L447.223,451l1.275,1.178,1.3,1.157,1.328,1.125,1.35,1.093,1.382,1.061,1.4,1.018,1.435.986,1.457.964,1.468.91,1.5.889,1.521.846,1.543.8,1.553.771,1.575.739,1.6.7,1.607.654,1.628.621,1.639.578,1.66.536,1.66.5,1.682.45,1.682.418,1.7.375,1.7.343,1.714.289,1.725.257,1.725.2,1.725.171,1.735.129,1.746.075,1.735.043h1.735l1.735-.043,1.746-.075,1.735-.129,1.725-.171,1.725-.2L508.1,470l1.714-.289,1.7-.343,1.7-.375,1.682-.418,1.682-.45,1.66-.5,1.66-.536,1.639-.578,1.628-.621,1.607-.654,1.6-.7,1.575-.739,1.553-.771,1.543-.8,1.521-.846,1.5-.889,1.468-.91,1.457-.964,1.435-.986,1.4-1.018,1.382-1.061,1.35-1.093,1.328-1.125,1.3-1.157L546.463,451l1.243-1.221,1.211-1.243,1.189-1.275,1.146-1.307,1.125-1.328,1.082-1.361,1.05-1.382,1.028-1.414.985-1.425.943-1.457.921-1.478.878-1.51.836-1.521.8-1.532.771-1.564.729-1.575.7-1.6.643-1.618.621-1.628.568-1.639.536-1.66.493-1.66.45-1.682.418-1.693.364-1.693.332-1.714.289-1.714.246-1.714.2-1.735.161-1.725.129-1.735.075-1.735.032-1.746v-1.735l-.043-1.735-.1-1.735-.128-1.735-.171-1.735-.214-1.725-.257-1.714-.3-1.714-.343-1.7-.386-1.7L566.3,380.8l-.461-1.682-.5-1.66-.546-1.65-.578-1.639-.621-1.628-.664-1.607-.707-1.6-.739-1.575-.771-1.553-.814-1.532-.857-1.521" transform="translate(-390.619 -345.964)"/><path class="a" d="M431.913,361.424,431.023,363l-.846,1.6-.814,1.618-.771,1.639-.739,1.65-.7,1.671-.653,1.682-.621,1.7-.579,1.714L424.767,378l-.493,1.746-.45,1.746-.418,1.757-.375,1.778-.332,1.768-.289,1.789-.246,1.789-.2,1.8-.171,1.8-.118,1.81-.075,1.8-.043,1.81.011,1.81.043,1.81.1,1.8.129,1.81.171,1.8.214,1.789.257,1.8.311,1.778.332,1.778.386,1.768.428,1.757.461,1.746.514,1.735.546,1.725.578,1.714.632,1.693.664,1.682.707,1.66.739,1.65.793,1.639.814,1.607.857,1.6.9,1.564.932,1.553.964,1.532,1.007,1.5,1.039,1.478,1.071,1.457,1.1,1.435,1.135,1.4,1.178,1.382,1.2,1.35,1.243,1.318,1.264,1.3,1.3,1.253,1.318,1.232,1.36,1.2,1.382,1.168,1.4,1.136,1.435,1.1,1.457,1.071L455.416,464l1.5,1.007,1.532.964,1.553.921,1.575.889,1.6.857,1.618.814,1.628.782,1.65.739,1.671.7,1.682.664,1.7.621,1.7.579,1.725.546,1.746.5,1.746.461,1.757.418,1.768.375,1.778.332,1.789.3,1.789.257,1.8.2,1.8.171,1.8.129,1.81.086,1.81.043h1.8l1.81-.043,1.81-.086,1.8-.129,1.8-.171,1.8-.2,1.789-.257,1.789-.3,1.778-.332,1.768-.375,1.757-.418,1.746-.461,1.746-.5,1.725-.546,1.7-.579,1.7-.621,1.682-.664,1.671-.7,1.65-.739,1.628-.782,1.618-.814,1.6-.857,1.575-.889,1.553-.921,1.532-.964,1.5-1.007,1.489-1.028,1.457-1.071,1.435-1.1,1.4-1.136,1.382-1.168,1.36-1.2,1.318-1.232,1.3-1.253,1.264-1.3,1.243-1.318,1.2-1.35,1.178-1.382,1.135-1.4,1.1-1.435,1.071-1.457,1.039-1.478,1.007-1.5.964-1.532.932-1.553.9-1.564.857-1.6.814-1.607.793-1.639.739-1.65.707-1.66.664-1.682.632-1.693.578-1.714.546-1.725.514-1.735.461-1.746.429-1.757.386-1.768.332-1.778.311-1.778.257-1.8.214-1.789.171-1.8.129-1.81.1-1.8.043-1.81.011-1.81-.043-1.81-.075-1.8-.118-1.81-.171-1.8-.2-1.8-.246-1.789-.289-1.789-.332-1.768-.375-1.778-.418-1.757-.45-1.746L572.92,378l-.536-1.725-.578-1.714-.621-1.7-.654-1.682-.7-1.671-.739-1.65-.771-1.639-.814-1.618-.846-1.6-.889-1.575" transform="translate(-392.62 -346.963)"/><path class="a" d="M425.11,357.121l-.953,1.693-.921,1.725-.889,1.735-.846,1.768-.8,1.768-.771,1.8-.728,1.81-.7,1.821-.653,1.842-.611,1.853-.568,1.864-.536,1.875-.493,1.9-.45,1.9-.418,1.907-.364,1.918-.332,1.918-.289,1.939-.246,1.928-.2,1.95-.161,1.939-.118,1.95-.075,1.95-.043,1.95.011,1.95.043,1.95.086,1.95.139,1.95.171,1.95.214,1.939.257,1.928.289,1.939.343,1.918.386,1.917.418,1.907.461,1.9.5,1.885.546,1.875.578,1.853.621,1.853.664,1.843.707,1.821.739,1.8.782,1.789.814,1.778.857,1.746.889,1.735.932,1.714.964,1.7,1.007,1.671,1.039,1.65,1.071,1.628,1.114,1.607,1.136,1.585L431.9,458.1l1.21,1.532,1.243,1.51,1.275,1.478,1.307,1.446,1.339,1.425,1.36,1.393,1.4,1.361,1.425,1.339,1.457,1.3,1.478,1.275,1.51,1.232,1.532,1.211,1.564,1.168,1.585,1.146,1.607,1.1,1.628,1.071,1.66,1.029,1.671,1,1.7.964,1.714.932,1.735.889,1.757.846,1.778.814,1.789.771,1.81.739,1.821.7,1.843.653,1.853.621,1.864.578,1.875.536,1.885.5,1.9.45,1.907.418,1.918.375,1.918.332,1.939.3,1.928.246,1.939.214,1.95.161,1.95.129,1.95.086,1.95.043h1.95l1.95-.043,1.95-.086,1.95-.129,1.95-.161,1.939-.214,1.928-.246,1.939-.3,1.917-.332,1.917-.375,1.907-.418,1.9-.45,1.885-.5,1.875-.536,1.864-.578,1.853-.621,1.843-.653,1.821-.7,1.81-.739,1.789-.771,1.778-.814,1.757-.846,1.735-.889,1.714-.932,1.7-.964,1.671-1,1.66-1.029,1.628-1.071,1.607-1.1,1.585-1.146,1.564-1.168,1.532-1.211,1.51-1.232,1.478-1.275,1.457-1.3,1.425-1.339,1.4-1.361,1.361-1.393,1.339-1.425,1.307-1.446,1.275-1.478,1.243-1.51,1.211-1.532,1.178-1.553,1.135-1.585,1.114-1.607,1.071-1.628,1.039-1.65,1.007-1.671.964-1.7.932-1.714.889-1.735.857-1.746.814-1.778.782-1.789.739-1.8.707-1.821.664-1.843.621-1.853.578-1.853.546-1.875.5-1.885.461-1.9.418-1.907.386-1.917.343-1.918.289-1.939L594,413.5l.214-1.939.171-1.95.139-1.95.086-1.95.043-1.95.011-1.95-.043-1.95-.075-1.95-.118-1.95-.161-1.939-.2-1.95-.246-1.928-.289-1.939-.332-1.918-.364-1.918-.418-1.907-.45-1.9-.493-1.9-.536-1.875-.568-1.864-.611-1.853-.653-1.842-.7-1.821-.728-1.81-.771-1.8-.8-1.768-.846-1.768-.889-1.735-.921-1.725-.954-1.693" transform="translate(-397.58 -349.441)"/><path class="a" d="M422.852,355.68l-1,1.768-.964,1.789-.921,1.81-.878,1.832-.836,1.843-.8,1.864-.761,1.875-.728,1.9-.675,1.907-.643,1.928-.6,1.939-.557,1.95-.525,1.96-.471,1.971-.439,1.982-.386,1.993-.353,1.992-.3,2L410.747,392l-.214,2.014-.182,2.025-.139,2.025-.086,2.025-.054,2.025v2.025l.032,2.035.086,2.025.129,2.025.161,2.025.214,2.014.246,2.014.3,2,.332,2,.386,1.993.418,1.982.471,1.971.5,1.96.546,1.96.589,1.939.632,1.928.675,1.907.707,1.907.761,1.885.793,1.864.825,1.842.878,1.832.9,1.821.953,1.789.986,1.768,1.028,1.757,1.06,1.725,1.093,1.714,1.135,1.682,1.168,1.65,1.2,1.639,1.243,1.607,1.264,1.575,1.307,1.553,1.339,1.521,1.371,1.5,1.4,1.468,1.425,1.435,1.468,1.4,1.489,1.371,1.521,1.35,1.553,1.307,1.575,1.275,1.607,1.243,1.628,1.21,1.65,1.168,1.682,1.135,1.7,1.1,1.725,1.061,1.746,1.028,1.778,1,1.789.953,1.81.911,1.821.878,1.853.836,1.864.793,1.885.76,1.9.718,1.907.675,1.928.643,1.939.589,1.95.557,1.96.514,1.971.471,1.993.418,1.982.386,2,.354,2,.3,2.014.257,2.014.214,2.025.171,2.025.129,2.025.086,2.025.043h2.035l2.025-.043,2.025-.086,2.025-.129,2.025-.171,2.014-.214,2.014-.257,2-.3,2-.354,1.982-.386,1.992-.418,1.971-.471,1.96-.514,1.95-.557,1.939-.589,1.928-.643,1.907-.675,1.9-.718,1.885-.76,1.864-.793,1.853-.836,1.821-.878,1.81-.911,1.789-.953,1.778-1,1.746-1.028,1.725-1.061,1.7-1.1,1.682-1.135,1.65-1.168,1.628-1.21,1.607-1.243,1.575-1.275,1.553-1.307,1.521-1.35,1.489-1.371,1.468-1.4,1.425-1.435,1.4-1.468,1.371-1.5,1.339-1.521,1.307-1.553,1.264-1.575,1.243-1.607,1.2-1.639L584,457.5l1.136-1.682,1.093-1.714,1.061-1.725,1.028-1.757.986-1.768.953-1.789.9-1.821.879-1.832.825-1.842.793-1.864.761-1.885.707-1.907.675-1.907.632-1.928.589-1.939.546-1.96.5-1.96.471-1.971.418-1.982.386-1.993.332-2,.3-2,.247-2.014.214-2.014.161-2.025.128-2.025.086-2.025.032-2.035v-2.025l-.054-2.025-.086-2.025-.139-2.025-.182-2.025L600.164,392l-.268-2.014-.3-2-.353-1.992-.386-1.993-.439-1.982-.471-1.971-.525-1.96-.557-1.95-.6-1.939-.643-1.928-.675-1.907-.728-1.9-.76-1.875-.8-1.864-.836-1.843-.878-1.832-.921-1.81-.964-1.789-1-1.768" transform="translate(-399.231 -350.271)"/><path class="a" d="M421.053,354.545l-1.007,1.778-.964,1.8-.921,1.821-.9,1.842-.846,1.853-.814,1.875-.782,1.885-.728,1.907-.7,1.917-.664,1.928-.611,1.95-.578,1.96-.536,1.971-.493,1.982-.461,1.993L409.645,385l-.375,2.014-.332,2.014-.289,2.025-.246,2.025-.2,2.035-.161,2.035-.129,2.035-.075,2.035-.032,2.046v2.046l.043,2.035.1,2.046.129,2.035.171,2.035.214,2.025.257,2.025.3,2.025.343,2.014.386,2,.418,2,.471,1.982.5,1.982.546,1.971.589,1.95.621,1.95.675,1.928.707,1.917.739,1.9.782,1.885.825,1.875.868,1.843.9,1.832.932,1.821.975,1.789,1.018,1.778,1.05,1.746,1.082,1.735,1.125,1.7,1.146,1.693,1.189,1.66,1.232,1.628,1.253,1.617,1.285,1.575L432,468.878l1.35,1.521,1.382,1.5,1.425,1.478,1.435,1.435,1.478,1.414,1.51,1.382,1.532,1.35,1.553,1.318,1.585,1.285,1.618,1.253,1.639,1.221,1.66,1.178,1.693,1.157,1.7,1.114,1.735,1.082,1.757,1.039,1.778,1.007,1.8.975,1.81.932,1.832.9,1.853.857,1.875.814,1.885.782,1.907.739,1.917.707,1.928.653,1.95.621,1.96.589,1.96.536,1.982.5,1.993.461,2,.418,2,.375,2.014.332,2.025.3,2.025.246,2.025.214,2.035.171,2.046.129,2.035.075,2.046.043h2.035l2.046-.043,2.035-.075,2.046-.129,2.035-.171,2.025-.214,2.025-.246,2.025-.3,2.014-.332,2-.375,2-.418,1.993-.461,1.982-.5,1.96-.536,1.96-.589,1.95-.621,1.928-.653,1.917-.707,1.907-.739,1.885-.782,1.875-.814,1.853-.857,1.832-.9,1.81-.932,1.8-.975,1.778-1.007,1.757-1.039,1.735-1.082,1.7-1.114,1.693-1.157,1.66-1.178,1.639-1.221,1.618-1.253,1.585-1.285,1.553-1.318,1.532-1.35,1.511-1.382,1.478-1.414,1.435-1.435,1.425-1.478,1.382-1.5,1.35-1.521,1.328-1.564,1.285-1.575,1.253-1.617,1.232-1.628,1.189-1.66,1.146-1.693,1.125-1.7,1.082-1.735,1.05-1.746,1.018-1.778.975-1.789.932-1.821.9-1.832.868-1.843.825-1.875.782-1.885.739-1.9.707-1.917.675-1.928.621-1.95.589-1.95.546-1.971.5-1.982.471-1.982.418-2,.386-2,.343-2.014.3-2.025.257-2.025.214-2.025.171-2.035.129-2.035.1-2.046.043-2.035v-2.046l-.032-2.046-.075-2.035-.129-2.035-.161-2.035-.2-2.035-.246-2.025-.289-2.025-.332-2.014L603.882,385l-.407-1.992-.461-1.993-.493-1.982-.536-1.971-.578-1.96-.611-1.95-.664-1.928-.7-1.917-.728-1.907-.782-1.885-.814-1.875-.846-1.853-.9-1.842-.921-1.821-.964-1.8-1.007-1.778" transform="translate(-400.539 -350.924)"/><path class="a" d="M427.375,358.556l-.943,1.66-.9,1.693-.857,1.7-.825,1.736-.793,1.735-.75,1.768-.707,1.778-.664,1.789-.632,1.81-.589,1.821-.546,1.832-.514,1.843-.461,1.853-.428,1.864-.386,1.875-.343,1.885-.3,1.885-.257,1.9-.214,1.907-.182,1.907-.129,1.907-.086,1.907-.054,1.918v1.907l.032,1.918.075,1.907.129,1.918.161,1.907.2,1.9.257,1.9.289,1.9.332,1.885.375,1.875.407,1.864.461,1.864.5,1.843.536,1.843.578,1.821.621,1.81.653,1.8.707,1.778.728,1.767.782,1.746.814,1.725.857,1.714.889,1.693.932,1.671.964,1.66,1.007,1.628,1.028,1.607,1.082,1.585,1.1,1.553,1.146,1.543,1.178,1.5,1.211,1.489,1.243,1.457,1.264,1.425,1.307,1.4,1.339,1.361,1.371,1.35,1.393,1.307,1.425,1.275,1.446,1.243,1.478,1.221,1.51,1.178,1.532,1.146,1.553,1.114,1.585,1.071,1.607,1.05,1.628,1.007,1.639.964,1.671.932,1.693.9,1.714.857,1.725.825,1.746.782,1.768.739,1.778.707,1.789.664,1.81.621,1.821.589,1.842.546,1.842.5,1.853.461,1.875.418,1.875.375,1.875.343,1.9.289,1.9.257,1.907.214,1.9.171,1.918.129,1.907.075,1.918.043H503.1l1.918-.043,1.907-.075,1.918-.129,1.9-.171,1.907-.214,1.9-.257,1.9-.289,1.875-.343,1.875-.375,1.875-.418,1.853-.461,1.843-.5,1.843-.546,1.821-.589,1.81-.621,1.789-.664,1.778-.707,1.768-.739,1.746-.782,1.725-.825,1.714-.857,1.693-.9,1.671-.932,1.639-.964,1.628-1.007,1.607-1.05,1.585-1.071,1.553-1.114,1.532-1.146,1.51-1.178,1.478-1.221,1.446-1.243,1.425-1.275,1.393-1.307,1.371-1.35,1.339-1.361,1.307-1.4,1.264-1.425,1.243-1.457,1.21-1.489,1.178-1.5,1.146-1.543,1.1-1.553,1.082-1.585,1.029-1.607,1.007-1.628.964-1.66.932-1.671.889-1.693.857-1.714.814-1.725.782-1.746.728-1.767.707-1.778.654-1.8.621-1.81.579-1.821.536-1.843.5-1.843.461-1.864.407-1.864.375-1.875.332-1.885.289-1.9.257-1.9.2-1.9.161-1.907.128-1.918.075-1.907.032-1.918v-1.907l-.054-1.918-.086-1.907-.129-1.907-.182-1.907-.214-1.907-.257-1.9-.3-1.885-.343-1.885-.386-1.875-.429-1.864-.461-1.853-.514-1.843-.546-1.832-.589-1.821-.632-1.81-.664-1.789-.707-1.778-.75-1.768-.793-1.735-.825-1.736-.857-1.7-.9-1.693-.943-1.66" transform="translate(-395.924 -348.615)"/><path class="a" d="M437.385,364.891l-.836,1.478-.782,1.489-.75,1.51-.707,1.532-.675,1.553L433,374.018l-.589,1.575-.557,1.6-.5,1.618-.471,1.618-.428,1.628-.386,1.65-.343,1.65-.311,1.66-.257,1.671-.214,1.671-.182,1.671-.129,1.682-.086,1.693-.054,1.682v1.693l.043,1.682.075,1.693.129,1.682.171,1.682.2,1.671.257,1.671.289,1.66.343,1.65.375,1.65.428,1.628.461,1.628.5,1.607.546,1.6.578,1.585.632,1.564.664,1.553.7,1.532.75,1.521.782,1.5.814,1.468.857,1.457.889,1.435.932,1.4.964,1.393,1.007,1.361,1.028,1.328,1.071,1.307,1.093,1.286,1.136,1.243,1.168,1.232,1.189,1.189,1.232,1.157,1.253,1.135,1.275,1.093,1.307,1.071,1.339,1.028,1.361,1,1.393.964,1.414.921,1.425.889,1.457.857,1.478.814,1.5.782,1.521.739,1.532.7,1.553.664,1.564.621,1.585.578,1.607.546,1.607.5,1.628.461,1.628.418,1.65.375,1.65.332" transform="translate(-388.623 -344.966)"/><path class="a" d="M478.416,463.274l1.65-.332,1.65-.375,1.628-.418,1.628-.461,1.607-.5,1.607-.546,1.585-.578,1.564-.621,1.553-.664,1.532-.7,1.521-.739,1.5-.782,1.478-.814,1.457-.857L501.8,454l1.414-.921,1.393-.964,1.36-1,1.339-1.028,1.307-1.071,1.275-1.093,1.253-1.135,1.232-1.157,1.189-1.189,1.168-1.232,1.136-1.243,1.093-1.286,1.071-1.307,1.029-1.328,1.007-1.361.964-1.393.932-1.4.889-1.435.857-1.457.814-1.468.782-1.5.75-1.521.7-1.532.664-1.553.632-1.564.578-1.585.546-1.6.5-1.607.461-1.628.428-1.628.375-1.65.343-1.65.289-1.66.257-1.671.2-1.671.171-1.682.129-1.682.075-1.693.043-1.682v-1.693L532.4,395.4l-.086-1.693-.128-1.682L532,390.354l-.214-1.671-.257-1.671-.311-1.66-.343-1.65-.386-1.65-.429-1.628-.471-1.618-.5-1.618-.557-1.6-.589-1.575-.632-1.564-.675-1.553-.707-1.532-.75-1.51-.782-1.489-.836-1.478" transform="translate(-359.873 -344.966)"/><line class="a" x1="8.484" y1="2.078" transform="translate(91.88 106.642)"/><path class="a" d="M465.258,431.829a.938.938,0,0,0,.605-1.727" transform="translate(-367.451 -307.411)"/><path class="a" d="M457.445,452.057l20.728,14.076h-5.185" transform="translate(-371.95 -294.768)"/><path class="a" d="M475.784,466.133H470.6l20.729-14.076" transform="translate(-364.375 -294.768)"/><line class="a" x1="5.41" y2="7.97" transform="translate(100.225 159.325)"/><line class="a" x2="1.5" transform="translate(105.474 53.101)"/><line class="a" y1="1.51" transform="translate(106.224 52.351)"/><line class="a" x2="6.031" transform="translate(98.683 53.101)"/><line class="a" x2="6.031" transform="translate(107.734 53.101)"/><line class="a" y1="6.031" transform="translate(106.224 54.612)"/><line class="a" y1="6.031" transform="translate(106.224 45.57)"/><line class="a" x2="1.5" transform="translate(105.474 53.101)"/><line class="a" y1="1.51" transform="translate(106.224 52.351)"/><line class="a" x2="6.031" transform="translate(98.683 53.101)"/><line class="a" x2="6.031" transform="translate(107.734 53.101)"/><line class="a" y1="6.031" transform="translate(106.224 54.612)"/><line class="a" y1="6.031" transform="translate(106.224 45.57)"/><line class="a" x2="1.5" transform="translate(105.474 53.101)"/><line class="a" y1="1.51" transform="translate(106.224 52.351)"/><line class="a" x2="6.031" transform="translate(98.683 53.101)"/><line class="a" x2="6.031" transform="translate(107.734 53.101)"/><line class="a" y1="6.031" transform="translate(106.224 54.612)"/><line class="a" y1="6.031" transform="translate(106.224 45.57)"/><path class="a" d="M474.45,357.068a2.823,2.823,0,1,0-2.824,2.822,2.823,2.823,0,0,0,2.824-2.822" transform="translate(-365.408 -351.097)"/><path class="a" d="M478.838,424.35a6.036,6.036,0,1,0-6.037,6.037,6.037,6.037,0,0,0,6.037-6.037" transform="translate(-366.583 -314.2)"/><line class="a" y1="2.078" x2="8.484" transform="translate(112.084 106.642)"/><path class="a" d="M475.71,430.1a.938.938,0,0,0,.605,1.727" transform="translate(-361.685 -307.411)"/></g><text class="b" transform="translate(175 776)"><tspan x="0" y="0">Donate to</tspan></text><g class="c" transform="translate(174 790)"><rect class="e" width="450" height="51" rx="11"/><rect class="f" x="1.5" y="1.5" width="447" height="48" rx="9.5"/></g><g transform="translate(197.779 795.745)"><path class="d" d="M29.685,27.934a3.577,3.577,0,0,0-1.267-.78,5.151,5.151,0,0,0-.852-.238c.125-.042.242-.088.354-.138a2.779,2.779,0,0,0,.944-.635,2.614,2.614,0,0,0,.563-.937,3.958,3.958,0,0,0,.183-1.261,4.307,4.307,0,0,0-.213-1.408,2.956,2.956,0,0,0-1.476-1.724,4.271,4.271,0,0,0-1.09-.407,7.638,7.638,0,0,0-1.2-.194,11.829,11.829,0,0,0-1.237-.058H13.436a.181.181,0,0,0-.181.181v1.174a.181.181,0,0,0,.181.181h2.776v11.5H13.436a.18.18,0,0,0-.181.181v1.16a.18.18,0,0,0,.181.181H24.57c.586,0,1.093-.019,1.553-.059a10.211,10.211,0,0,0,1.416-.22,5.084,5.084,0,0,0,1.241-.449,3.188,3.188,0,0,0,.984-.751,3.323,3.323,0,0,0,.645-1.1,4.5,4.5,0,0,0,.228-1.5,4.729,4.729,0,0,0-.226-1.508A3.023,3.023,0,0,0,29.685,27.934Zm-3.546-1.86a10.012,10.012,0,0,1-2.192.2h-6.1v-4.6h6.1a11.24,11.24,0,0,1,1.654.1,6.21,6.21,0,0,1,1.14.268,2.284,2.284,0,0,1,.7.373,1.552,1.552,0,0,1,.377.455,1.578,1.578,0,0,1,.17.522,3.906,3.906,0,0,1,.041.567,2.792,2.792,0,0,1-.135.9,1.458,1.458,0,0,1-.529.709A3.435,3.435,0,0,1,26.139,26.074Zm-8.245,1.677h6.459a11.324,11.324,0,0,1,2.111.171,4.12,4.12,0,0,1,1.416.51,2.11,2.11,0,0,1,.79.857,2.905,2.905,0,0,1,.257,1.3,3.2,3.2,0,0,1-.217,1.208,1.641,1.641,0,0,1-.694.768,3.936,3.936,0,0,1-1.358.455,13.107,13.107,0,0,1-2.144.142H17.894Z" transform="translate(-13.255 -7.346)"/><path class="d" d="M48.475,20.155H41.27a.181.181,0,0,0-.181.181V21.5a.181.181,0,0,0,.181.181h2.776v8.488a2.471,2.471,0,0,1-.354,1.26,3.088,3.088,0,0,1-1.057,1.053,6.184,6.184,0,0,1-1.788.731,9.859,9.859,0,0,1-2.478.27,10.078,10.078,0,0,1-2.492-.27,6,6,0,0,1-1.788-.731,3.237,3.237,0,0,1-1.058-1.055,2.465,2.465,0,0,1-.352-1.257V21.677h2.776a.181.181,0,0,0,.181-.181v-1.16a.181.181,0,0,0-.181-.181h-7.22a.181.181,0,0,0-.181.181V21.5a.181.181,0,0,0,.181.181h2.776v8.387a4.288,4.288,0,0,0,.47,2.014,4.43,4.43,0,0,0,1.4,1.556,6.867,6.867,0,0,0,2.295,1,13.594,13.594,0,0,0,3.174.339,12.783,12.783,0,0,0,3.176-.339,6.872,6.872,0,0,0,2.288-1A4.169,4.169,0,0,0,45.7,30.064V21.677h2.776a.181.181,0,0,0,.181-.181v-1.16A.181.181,0,0,0,48.475,20.155Z" transform="translate(-6.598 -7.346)"/><path class="d" d="M64.137,33.159H61.225l-3.7-4.787a4.516,4.516,0,0,0,2.511-1.3,3.83,3.83,0,0,0,.887-2.659,4.426,4.426,0,0,0-.349-1.859A3.2,3.2,0,0,0,59.444,21.2a5.242,5.242,0,0,0-1.953-.8,13.96,13.96,0,0,0-2.807-.251H44.666a.181.181,0,0,0-.181.181V21.5a.181.181,0,0,0,.181.181h2.776v11.5H44.666a.18.18,0,0,0-.181.181v1.16a.181.181,0,0,0,.181.181h7.205a.181.181,0,0,0,.181-.181v-1.16a.18.18,0,0,0-.181-.181H49.1V28.636h5.589c.113,0,.222,0,.329-.007.27-.01.519-.01.789-.029l3.434,4.574H57.352a.18.18,0,0,0-.181.181V34.5a.181.181,0,0,0,.181.181h6.785a.181.181,0,0,0,.181-.181v-1.16A.181.181,0,0,0,64.137,33.159ZM49.11,21.75h4.212c1.193,0,2.121.033,2.839.1a6.023,6.023,0,0,1,1.8.406,1.781,1.781,0,0,1,.928.792,2.841,2.841,0,0,1,.281,1.376,3.158,3.158,0,0,1-.267,1.39,1.866,1.866,0,0,1-.942.777,6.416,6.416,0,0,1-1.831.393c-.732.068-1.666.1-2.853.1H49.11Z" transform="translate(0.791 -7.346)"/><path class="d" d="M81.376,20.155H74.171a.181.181,0,0,0-.181.181V21.5a.181.181,0,0,0,.181.181h2.776V32.419L64.964,20.209a.177.177,0,0,0-.129-.054H60.456a.181.181,0,0,0-.181.181V21.5a.181.181,0,0,0,.181.181h2.776v11.5H60.456a.18.18,0,0,0-.181.181v1.16a.181.181,0,0,0,.181.181h7.205a.181.181,0,0,0,.181-.181v-1.16a.18.18,0,0,0-.181-.181H64.885v-10.7L76.869,34.641A.181.181,0,0,0,77,34.7h1.421a.181.181,0,0,0,.181-.181V21.677h2.776a.181.181,0,0,0,.181-.181v-1.16A.181.181,0,0,0,81.376,20.155Z" transform="translate(7.715 -7.346)"/><path class="d" d="M84.862,20.155H77.656a.181.181,0,0,0-.181.181V21.5a.181.181,0,0,0,.181.181h2.776v11.5H77.656a.18.18,0,0,0-.181.181v1.16a.181.181,0,0,0,.181.181h7.205a.181.181,0,0,0,.181-.181v-1.16a.18.18,0,0,0-.181-.181H82.085v-11.5h2.776a.181.181,0,0,0,.181-.181v-1.16A.181.181,0,0,0,84.862,20.155Z" transform="translate(15.394 -7.346)"/><path class="d" d="M106.456,20.155H99.251a.181.181,0,0,0-.181.181V21.5a.181.181,0,0,0,.181.181h2.776V32.419L90.044,20.209a.177.177,0,0,0-.129-.054H85.536a.182.182,0,0,0-.167.254V21.5a.181.181,0,0,0,.181.181h2.776v11.5H85.551a.18.18,0,0,0-.181.181v1.16a.181.181,0,0,0,.181.181h7.205a.181.181,0,0,0,.181-.181v-1.16a.18.18,0,0,0-.181-.181H89.98v-10.7l11.984,12.166a.179.179,0,0,0,.129.055H103.5a.181.181,0,0,0,.181-.181V21.677h2.776a.181.181,0,0,0,.181-.181v-1.16A.181.181,0,0,0,106.456,20.155Z" transform="translate(18.9 -7.346)"/><path class="d" d="M121.151,27.364h-6.785a.181.181,0,0,0-.181.181v1.16a.181.181,0,0,0,.181.181h3.414V32.56a10.447,10.447,0,0,1-1.019.38c-.416.133-.866.236-1.285.326-.473.091-.934.161-1.4.217-.541.046-1.018.071-1.463.071a12.34,12.34,0,0,1-3.529-.457,7.151,7.151,0,0,1-2.475-1.258,5.062,5.062,0,0,1-1.472-1.9,5.752,5.752,0,0,1-.491-2.42,6.781,6.781,0,0,1,.436-2.528,4.6,4.6,0,0,1,1.356-1.87,6.5,6.5,0,0,1,2.369-1.2,12.5,12.5,0,0,1,3.487-.428,9.924,9.924,0,0,1,1.267.071,12.138,12.138,0,0,1,1.286.228,7.555,7.555,0,0,1,1.174.368,6.277,6.277,0,0,1,.973.507,2.44,2.44,0,0,1,.631.589,1.164,1.164,0,0,1,.215.665v1.595a.181.181,0,0,0,.181.181h1.16a.181.181,0,0,0,.181-.181V20.21a.181.181,0,0,0-.181-.181h-1.16a.181.181,0,0,0-.181.181v1.054c-.3-.146-.593-.277-.893-.394a10.22,10.22,0,0,0-1.328-.458,11.757,11.757,0,0,0-1.576-.309,15.1,15.1,0,0,0-1.908-.117,13.221,13.221,0,0,0-3.543.455,9.012,9.012,0,0,0-2.929,1.392,6.815,6.815,0,0,0-2,2.353,7.12,7.12,0,0,0-.731,3.332,7.123,7.123,0,0,0,.731,3.332,6.745,6.745,0,0,0,2.027,2.354,9.072,9.072,0,0,0,3.031,1.392,14.541,14.541,0,0,0,3.758.454,19.923,19.923,0,0,0,2.807-.19,11.076,11.076,0,0,0,2.463-.625v.358a.181.181,0,0,0,.181.181h1.319a.181.181,0,0,0,.181-.181v-5.7h1.718a.181.181,0,0,0,.181-.181v-1.16A.181.181,0,0,0,121.151,27.364Z" transform="translate(26.743 -7.423)"/><path class="d" d="M149.648,20.155H145.3a.182.182,0,0,0-.152.083l-8.04,12.607-8.168-12.607a.181.181,0,0,0-.152-.083h-4.349a.181.181,0,0,0-.181.181v1.145a.181.181,0,0,0,.181.181h2.776v11.5h-2.776a.181.181,0,0,0-.181.181V34.5a.181.181,0,0,0,.181.181h7.205a.181.181,0,0,0,.181-.181v-1.16a.181.181,0,0,0-.181-.181h-2.776V23.012l7.452,11.6a.182.182,0,0,0,.152.084h1.145a.18.18,0,0,0,.152-.084l7.452-11.543v10.1h-2.776a.18.18,0,0,0-.181.181v1.16a.181.181,0,0,0,.181.181h7.205a.181.181,0,0,0,.181-.181v-1.16a.18.18,0,0,0-.181-.181h-2.776v-11.5h2.776a.181.181,0,0,0,.181-.181v-1.16A.181.181,0,0,0,149.648,20.155Z" transform="translate(36.243 -7.346)"/><path class="d" d="M164.472,33.174h-2.617l-6.762-12.922a.184.184,0,0,0-.161-.1h-6.075a.181.181,0,0,0-.181.181V21.5a.181.181,0,0,0,.181.181h3.616l-6,11.5h-2.615a.18.18,0,0,0-.181.181v1.16a.181.181,0,0,0,.181.181h7.205a.181.181,0,0,0,.181-.181v-1.16a.18.18,0,0,0-.181-.181h-2.788L150,29.883h8.319l1.7,3.291h-2.762a.18.18,0,0,0-.181.181v1.16a.181.181,0,0,0,.181.181h7.22a.181.181,0,0,0,.181-.181v-1.16A.18.18,0,0,0,164.472,33.174ZM154.179,21.988l3.34,6.373H150.84Z" transform="translate(44.91 -7.346)"/><path class="d" d="M181.036,20.155h-7.205a.18.18,0,0,0-.181.181V21.5a.18.18,0,0,0,.181.181h2.776V32.419l-11.984-12.21a.18.18,0,0,0-.129-.054h-4.378a.184.184,0,0,0-.167.255V21.5a.181.181,0,0,0,.181.181h2.776v11.5h-2.776a.18.18,0,0,0-.181.181v1.16a.181.181,0,0,0,.181.181h7.205a.181.181,0,0,0,.181-.181v-1.16a.18.18,0,0,0-.181-.181H164.56v-10.7l11.969,12.166a.181.181,0,0,0,.129.055h1.421a.18.18,0,0,0,.181-.181V21.677h2.776a.18.18,0,0,0,.181-.181v-1.16A.18.18,0,0,0,181.036,20.155Z" transform="translate(52.161 -7.346)"/><path class="d" d="M208.987,21.306a5.516,5.516,0,0,0-1.977-.857,12.446,12.446,0,0,0-2.871-.294H193.526a.18.18,0,0,0-.181.181.209.209,0,0,0,.015.074v1.1a.181.181,0,0,0,.181.181h2.776v11.5h-2.776a.18.18,0,0,0-.181.181v1.16a.18.18,0,0,0,.181.181h7.205a.179.179,0,0,0,.181-.181V33.37a.179.179,0,0,0-.181-.181H197.97V29.274h6.169a12.361,12.361,0,0,0,2.871-.3,5.2,5.2,0,0,0,1.98-.873,3.6,3.6,0,0,0,1.144-1.451A4.95,4.95,0,0,0,210.5,24.7a4.9,4.9,0,0,0-.362-1.954A3.37,3.37,0,0,0,208.987,21.306Zm-.274,3.394a3.662,3.662,0,0,1-.232,1.379,2.113,2.113,0,0,1-.628.842,2.8,2.8,0,0,1-.934.489,7,7,0,0,1-1.161.226,11.751,11.751,0,0,1-1.242.058h-6.56V21.735h5.357a24.645,24.645,0,0,1,2.5.116,5.054,5.054,0,0,1,1.676.429,2.107,2.107,0,0,1,.922.881A3.246,3.246,0,0,1,208.713,24.7Z" transform="translate(67.068 -7.346)"/><path class="d" d="M227.667,33.159h-2.911l-3.7-4.787a4.527,4.527,0,0,0,2.51-1.3,3.83,3.83,0,0,0,.887-2.659,4.4,4.4,0,0,0-.351-1.859,3.2,3.2,0,0,0-1.131-1.347,5.25,5.25,0,0,0-1.954-.8,13.935,13.935,0,0,0-2.805-.251H208.2a.18.18,0,0,0-.181.181V21.5a.18.18,0,0,0,.181.181h2.776v11.5H208.2a.179.179,0,0,0-.181.181v1.16a.18.18,0,0,0,.181.181H215.4a.18.18,0,0,0,.181-.181v-1.16a.179.179,0,0,0-.181-.181h-2.776V28.636h5.589c.113,0,.222,0,.328-.007.273-.01.522-.01.79-.029l3.434,4.574h-1.885a.179.179,0,0,0-.181.181V34.5a.18.18,0,0,0,.181.181h6.785a.18.18,0,0,0,.181-.181v-1.16A.18.18,0,0,0,227.667,33.159ZM212.64,21.75h4.212c1.193,0,2.121.033,2.839.1a6.034,6.034,0,0,1,1.8.406,1.785,1.785,0,0,1,.925.792,2.828,2.828,0,0,1,.283,1.376,3.14,3.14,0,0,1-.267,1.39,1.868,1.868,0,0,1-.941.777,6.427,6.427,0,0,1-1.832.393c-.732.068-1.667.1-2.853.1H212.64Z" transform="translate(73.606 -7.346)"/><path class="d" d="M239.421,21.78a8.518,8.518,0,0,0-2.9-1.364,13.941,13.941,0,0,0-3.584-.441,14.806,14.806,0,0,0-2.45.191,11.127,11.127,0,0,0-2.2.6,8.708,8.708,0,0,0-1.866,1.024,6.524,6.524,0,0,0-1.43,1.461,6.616,6.616,0,0,0-.925,1.9,7.85,7.85,0,0,0-.328,2.36,7.469,7.469,0,0,0,.716,3.372,6.451,6.451,0,0,0,1.967,2.356,8.669,8.669,0,0,0,2.93,1.363,14.287,14.287,0,0,0,3.614.441,13.98,13.98,0,0,0,3.584-.441,8.3,8.3,0,0,0,2.9-1.363,6.436,6.436,0,0,0,1.953-2.354,7.4,7.4,0,0,0,.716-3.374,7.142,7.142,0,0,0-.745-3.387A6.511,6.511,0,0,0,239.421,21.78Zm.928,5.741a5.445,5.445,0,0,1-1.834,4.457,10.839,10.839,0,0,1-11.134,0,5.409,5.409,0,0,1-1.848-4.455,5.462,5.462,0,0,1,1.848-4.442,10.8,10.8,0,0,1,11.134-.016A5.452,5.452,0,0,1,240.349,27.521Z" transform="translate(80.62 -7.427)"/><path class="d" d="M253.651,20.155h-7.423a.181.181,0,0,0-.181.181v1.145a.181.181,0,0,0,.181.181h2.994v8.169a4.03,4.03,0,0,1-.289,1.608,2.61,2.61,0,0,1-.8,1.061,3.475,3.475,0,0,1-1.28.606,7.092,7.092,0,0,1-1.711.2,4.681,4.681,0,0,1-2.988-.815,3.115,3.115,0,0,1-1.035-2.473.18.18,0,0,0-.181-.177h-1.29a.181.181,0,0,0-.181.181,5.177,5.177,0,0,0,.407,2.133,3.968,3.968,0,0,0,1.155,1.519,5.129,5.129,0,0,0,1.783.884,7.807,7.807,0,0,0,2.3.3,8.2,8.2,0,0,0,2.327-.3,5.3,5.3,0,0,0,1.817-.916,4.1,4.1,0,0,0,1.2-1.531,4.978,4.978,0,0,0,.423-2.134v-8.3h2.776a.181.181,0,0,0,.181-.181v-1.16A.181.181,0,0,0,253.651,20.155Z" transform="translate(87.487 -7.346)"/><path class="d" d="M267.564,29.893H266.4a.18.18,0,0,0-.181.181V33.14h-10V27.82h7.691a.181.181,0,0,0,.181-.181v-1.2a.181.181,0,0,0-.181-.181H256.22V21.731h9.858v2.863a.181.181,0,0,0,.181.181H267.4a.181.181,0,0,0,.181-.181V20.346a.181.181,0,0,0-.181-.181H251.776a.18.18,0,0,0-.181.181v1.16a.18.18,0,0,0,.181.181h2.776v11.5h-2.776a.179.179,0,0,0-.181.181v1.16a.179.179,0,0,0,.181.181h15.788a.179.179,0,0,0,.181-.181V30.074A.18.18,0,0,0,267.564,29.893Z" transform="translate(92.942 -7.342)"/><path class="d" d="M282.908,30.524h-1.421a.18.18,0,0,0-.167.112,3.5,3.5,0,0,1-.873,1.229,4.788,4.788,0,0,1-1.34.895,7.815,7.815,0,0,1-1.733.552,10.056,10.056,0,0,1-1.992.184,11.158,11.158,0,0,1-3.252-.426,6.434,6.434,0,0,1-2.3-1.2A5.039,5.039,0,0,1,268.461,30,6.326,6.326,0,0,1,268,27.516a6.907,6.907,0,0,1,.436-2.485,4.7,4.7,0,0,1,1.328-1.886,6.278,6.278,0,0,1,2.311-1.211,11.982,11.982,0,0,1,3.4-.428,11.377,11.377,0,0,1,2.238.228,7.206,7.206,0,0,1,1.88.664,3.8,3.8,0,0,1,1.289,1.067,2.308,2.308,0,0,1,.471,1.441v.826a.188.188,0,0,0,.28.152h1a.18.18,0,0,0,.181-.181V20.4a.18.18,0,0,0-.181-.181h-1.16a.181.181,0,0,0-.181.181v1.119c-.244-.142-.5-.29-.777-.438a8.517,8.517,0,0,0-1.319-.564,11.1,11.1,0,0,0-1.695-.4,14.145,14.145,0,0,0-2.218-.161,13.345,13.345,0,0,0-3.588.47,8.531,8.531,0,0,0-2.888,1.409,6.583,6.583,0,0,0-1.921,2.369,7.387,7.387,0,0,0-.7,3.284,7.4,7.4,0,0,0,.684,3.284,6.675,6.675,0,0,0,1.909,2.37,8.517,8.517,0,0,0,2.859,1.408,12.978,12.978,0,0,0,3.529.47,12.589,12.589,0,0,0,2.913-.309,8.628,8.628,0,0,0,2.281-.876,6.221,6.221,0,0,0,2.717-3.06.182.182,0,0,0-.168-.249Z" transform="translate(99.504 -7.436)"/><path class="d" d="M296.451,20.155H281a.181.181,0,0,0-.181.181v5.1a.181.181,0,0,0,.181.181h1.189a.181.181,0,0,0,.181-.181V21.706h5.553V33.159h-2.994a.181.181,0,0,0-.181.181V34.5a.181.181,0,0,0,.181.181h7.626a.181.181,0,0,0,.181-.181v-1.16a.181.181,0,0,0-.181-.181h-2.994V21.692h5.553v3.733a.18.18,0,0,0,.181.181h1.16a.181.181,0,0,0,.181-.181V20.336A.181.181,0,0,0,296.451,20.155Z" transform="translate(106.084 -7.346)"/><path class="d" d="M185.836,27.833V27.5l-.044-.174v-.174l-.043-.13v-.174l-.029-.174-.044-.174-.043-.174v-.174l-.044-.087v-.087l-.029-.087V25.8l-.058-.072-.029-.1v-.072l-.044-.087v-.087l-.043-.087-.044-.044v-.087l-.029-.087-.043-.087V24.9l-.044-.087-.087-.131-.043-.174-.072-.174-.087-.116-.072-.174-.043-.188-.087-.116-.16-.3-.116-.348-.087-.131-.072-.174-.131-.3-.159-.29-.116-.348-.131-.3-.159-.3-.043-.174-.073-.13-.087-.174-.072-.116-.087-.174-.087-.174-.116-.3-.159-.3-.159-.3-.159-.29-.174-.3-.16-.3-.159-.3-.159-.29-.159-.3-.174-.3-.16-.3-.087-.13-.072-.131-.087-.174-.072-.13-.087-.174-.116-.116-.087-.131-.072-.174-.087-.13-.116-.131-.087-.13-.116-.131-.087-.174-.116-.131-.2-.261-.2-.246-.087-.131-.116-.13-.116-.131-.087-.13-.087-.174-.116-.131-.087-.13-.116-.131-.159-.3-.087-.13-.087-.072-.029-.1-.043-.044-.044-.087-.044-.029-.072-.087-.043-.058-.044-.072-.072-.044-.043-.087-.044-.043-.072-.087-.131-.131-.087-.087-.116-.13-.116-.131-.116-.131-.246-.217,1.247,2.291,1.261,2.247.275.594.159.261.174.3.16.3.116.261.174.3.16.29.116.261.16.3.116.3.174.3.116.29.087.131.072.13.044.174.087.131.043.174.073.13.087.174.043.13.072.174.044.116.087.174.029.131.043.174.087.174.044.13.072.174.043.131.044.159.029.174.087.131.043.174.029.13.058.174.029.174.043.13.044.174.043.174.029.131.044.174.043.159.044.174.043.131.029.174.043.174v.174l.044.131.043.174v.174l.044.174.029.13v.16l.043.174v.174l.044.174v.13l.043.174v.348l.044.159v.3l.029.174v1.812l-.029.174v.348l-.044.174v.29l-.043.174v.174l-.044.174v.131l-.043.174v.174l-.029.174-.044.13v.16l-.043.174-.044.174-.043.13v.174l-.029.174-.043.174-.044.13-.043.174-.044.174-.029.131-.043.159-.044.174-.043.174-.029.131-.087.348-.087.3-.116.3-.087.3-.072.333-.13.3-.073.3-.087.29-.116.348-.087.3-.116.3-.087.3-.116.348-.13.29-.073.3-.116.3-.087.3-.247.652-.2.594-.2.609-.246.638-.188.609-.247.594-.246.609-.2.609-.246.652-.246.594-.449,1.2-.435,1.261-.928,2.407h.072l.087-.043.087-.044h.072v-.043h.087l.029-.044h.043l.044-.043h.044V50.42l.029-.043h.044l.043-.044V50.29l.044-.044.043-.029.044-.058v-.043l.029-.029.044-.044.044-.087.043-.087.072-.188.087-.116.072-.174.087-.131.072-.174.087-.131.13-.3.16-.3.116-.333.16-.3.174-.3.116-.3.16-.29.13-.348.159-.3.275-.609.247-.638.29-.609.275-.652.522-1.247.29-.638.29-.609.275-.652.246-.594.29-.652.159-.3.116-.3.116-.333.174-.3.116-.3.116-.348.044-.131.087-.159.029-.174.087-.131.043-.174.087-.174.029-.174.087-.131.116-.348.087-.333.116-.3.131-.348.072-.3.13-.333.072-.348.116-.3.043-.174.044-.174.043-.174.044-.174.043-.131.029-.174.044-.174.043-.174.044-.174.029-.159.058-.174.029-.174.044-.174v-.174l.043-.174.044-.13v-.174l.029-.159V30.3l.043-.174v-.174l.044-.174v-.522l.043-.159v-.913l-.043-.174Z" transform="translate(59.885 -11.32)"/><path class="d" d="M186.662,29.167v-1.16l.043-.174v-.478l.029-.159v-.348l.044-.174v-.13l.043-.174v-.174l.044-.174v-.16l.043-.13.029-.174v-.174l.043-.174.044-.131V24.9l.043-.174.044-.174.029-.131.043-.174.044-.159.043-.174.044-.131.043-.174.029-.174.043-.13.044-.174.044-.174.029-.13.044-.174.087-.131.029-.174.058-.159.029-.131.087-.174.043-.13.072-.174.044-.174.043-.131.072-.174.044-.116.087-.174.044-.13.072-.174.087-.13.043-.174.073-.131.043-.174.087-.13.072-.131.131-.29.159-.3.116-.3.159-.3.131-.261.159-.29.159-.3.116-.261.174-.3.159-.3.159-.261.275-.594,1.261-2.247,1.261-2.291-.246.217-.116.131-.13.131-.116.13-.087.087-.116.131-.087.087-.043.043-.029.087-.087.044-.043.072-.029.058-.087.087-.044.029-.043.087-.044.044-.029.1-.087.072-.073.13-.174.3-.116.131-.087.13-.073.131-.13.174-.072.13-.116.131-.087.13-.131.131-.188.246-.217.261-.116.131-.072.174-.131.131-.087.13-.116.131-.073.13-.087.174-.087.131-.116.116-.073.174-.087.13-.087.174-.073.131-.087.13-.159.3-.159.3-.16.3-.174.29-.159.3-.159.3-.159.3-.174.29-.159.3-.159.3-.116.3-.087.174-.072.174-.087.116-.087.174-.029.13-.087.174-.159.3-.131.3-.116.348-.16.29-.116.3-.087.174-.087.131-.116.348-.159.3-.087.116-.029.188-.087.174-.087.116-.072.174-.044.174-.087.131V24.9l-.029.087-.043.087-.044.087v.087l-.043.044-.029.087v.087l-.058.087v.072l-.029.1-.043.072v.087l-.044.087v.174l-.043.174-.029.174-.044.174-.043.174v.174l-.044.13v.174l-.043.174v.507l-.029.174v.913l.029.159v.522l.043.174v.174l.044.174v.174l.043.159V30.8l.044.13.029.174v.174l.043.174.044.174.043.174.029.159.058.174.029.174.043.174.044.174.043.131.029.174.044.174.043.174.044.174.116.3.087.348.116.333.072.3.131.348.116.3.087.333.13.348.072.131.044.174.072.174.044.174.087.131.029.174.087.159.044.131.116.348.159.3.13.3.116.333.131.3.159.3.29.652L188,40.5l.29.652.275.609.29.638.522,1.247.29.652.275.609.29.638.246.609.159.3.116.348.174.29.116.3.159.3.159.3.131.333.159.3.116.3.087.131.072.174.087.131.087.174.072.116.087.188.029.087.043.087.044.044.043.029v.043l.044.058.029.029.043.044.044.043v.044h.043l.029.043v.044h.043l.044.043h.043l.029.044h.087v.043h.087l.072.044.087.043h.087l-.942-2.407-.435-1.261-.449-1.2-.247-.594-.232-.652-.217-.609-.232-.609-.2-.594-.246-.609-.2-.638-.246-.609-.2-.594-.246-.652-.072-.3-.116-.3-.087-.3-.116-.29-.13-.348-.073-.3-.13-.3-.072-.3-.131-.348-.087-.29-.072-.3-.116-.3-.087-.333-.072-.3-.131-.3-.087-.3-.072-.348-.044-.131-.043-.174-.029-.174-.043-.159-.044-.131-.043-.174-.044-.174-.043-.13-.029-.174v-.174l-.044-.174-.043-.13-.044-.174-.043-.174v-.16l-.029-.13-.043-.174v-.174l-.044-.174v-.131l-.043-.174V30.8l-.044-.174v-.29l-.029-.174v-.522l-.043-.174v-.3Z" transform="translate(63.164 -11.32)"/><path class="d" d="M185.114,13.16c-1.276.754-2.581,1.45-3.914,2.1a31.448,31.448,0,0,1,3.914,5.944,31.688,31.688,0,0,1,3.914-5.944C187.695,14.61,186.39,13.914,185.114,13.16Zm-2.827,2.218a10.9,10.9,0,0,1,2.827-1.522,10.666,10.666,0,0,1,2.827,1.522,18.139,18.139,0,0,1-2.827,4A18.14,18.14,0,0,1,182.287,15.378Z" transform="translate(61.666 -10.492)"/></g></g></svg>